# xmcd CD database file
#
# Track frame offsets:
#	182
#	11555
#	26882
#	43185
#	57922
#	68442
#	84612
#	97540
#	112462
#	123275
#	136705
#	148680
#	165835
#	179510
#	193035
#	204840
#
# Disc length: 2896 seconds
#
# Revision: 1
# Processed by: cddbd v1.5.1PL0 Copyright (c) Steve Scherf et al.
# Submitted via: CDex 1.51
#
DISCID=d40b4e10
DTITLE=Various Artist - Dansons À St Germain Des Prés
DYEAR=1900
DGENRE=Jazz
TTITLE0=Yves Montand - Les Grands Boulevards
TTITLE1=Sidney Bechet - Premier Bal
TTITLE2=Mouloudji - Comme Un P'tit Coquelicot
TTITLE3=Claude Luther - St Germain Dance
TTITLE4=Magali Noel - Valse Dingue
TTITLE5=Don Byas - Lover Man
TTITLE6=Yves Montand - Quand On S'balade
TTITLE7=Sydney Bechet - Petite Fleur
TTITLE8=Colette Renard - Les Feuilles Mortes
TTITLE9=Claude Luter - Creole Jazz
TTITLE10=Mouloudji - L'amour A Frappé
TTITLE11=Sidney Bechet - Les Oignons
TTITLE12=Colette Renard - Paris Canaille
TTITLE13=Claude Luter - Reincarnation Rag
TTITLE14=Mouloudji - Aime Moi
TTITLE15=Magali Noel - Je Coute Cher
EXTD=
EXTT0=
EXTT1=
EXTT2=
EXTT3=
EXTT4=
EXTT5=
EXTT6=
EXTT7=
EXTT8=
EXTT9=
EXTT10=
EXTT11=
EXTT12=
EXTT13=
EXTT14=
EXTT15=
PLAYORDER=
